<svg id="logo-white" data-name="Logo white" xmlns="http://www.w3.org/2000/svg" width="253" height="40" viewBox="0 0 253 40">
	<path id="Path_1" data-name="Path 1" d="M236.833,56.11,241.6,41.178c.072-.214.2-.318.378-.31h1.639a.368.368,0,0,1,.368.279L248.648,56.1a.513.513,0,0,1,.031.161c0,.1-.063.149-.187.149H246.8a.3.3,0,0,1-.323-.242l-1.265-4.307h-5.234l-1.321,4.271c-.053.186-.157.279-.31.279h-1.369c-.114,0-.171-.051-.171-.155a.6.6,0,0,1,.021-.145m3.641-5.843h4.276l-2.082-7.093Z" transform="translate(-152.14 -26.255)" fill="#fff"/>
	<path id="Path_2" data-name="Path 2" d="M273.429,51.6v-3.06a4.665,4.665,0,0,1,1.132-3.288,3.9,3.9,0,0,1,3.015-1.231,4,4,0,0,1,3.351,1.468V40.151q0-.238.228-.238h1.4c.171,0,.259.08.259.238V55.56c0,.159-.087.237-.259.237H281.2a.2.2,0,0,1-.228-.24V54.329a3.889,3.889,0,0,1-1.335,1.181,4.09,4.09,0,0,1-2.057.494,4.041,4.041,0,0,1-3-1.153,4.425,4.425,0,0,1-1.143-3.253m1.882-.234a3.167,3.167,0,0,0,.739,2.283,2.753,2.753,0,0,0,2.073.764,2.625,2.625,0,0,0,2.037-.837,2.92,2.92,0,0,0,.766-2.045V48.4a2.627,2.627,0,0,0-.828-2.019,2.906,2.906,0,0,0-2.058-.77,2.565,2.565,0,0,0-2,.806,3.626,3.626,0,0,0-.728,2.489Z" transform="translate(-175.665 -25.642)" fill="#fff"/>
	<path id="Path_3" data-name="Path 3" d="M307.069,51.6v-3.06A4.667,4.667,0,0,1,308.2,45.25a3.9,3.9,0,0,1,3.014-1.231,4,4,0,0,1,3.35,1.468V40.151q0-.238.228-.238h1.4c.172,0,.259.08.259.238V55.56c0,.159-.087.237-.259.237h-1.355a.2.2,0,0,1-.227-.24V54.329a3.893,3.893,0,0,1-1.334,1.181,4.088,4.088,0,0,1-2.058.494,4.043,4.043,0,0,1-3-1.153,4.42,4.42,0,0,1-1.142-3.253m1.882-.234a3.167,3.167,0,0,0,.739,2.283,2.754,2.754,0,0,0,2.073.764,2.628,2.628,0,0,0,2.038-.837,2.921,2.921,0,0,0,.765-2.045V48.4a2.628,2.628,0,0,0-.827-2.019,2.9,2.9,0,0,0-2.057-.77,2.565,2.565,0,0,0-2,.806,3.623,3.623,0,0,0-.729,2.489Z" transform="translate(-197.277 -25.642)" fill="#fff"/>
	<path id="Path_4" data-name="Path 4" d="M341.8,42.215V40.23q0-.322.278-.321h1.286a.283.283,0,0,1,.318.321v1.985q0,.341-.318.341h-1.286q-.278,0-.278-.341m0,13.3V44.552q0-.32.3-.32h1.286a.259.259,0,0,1,.3.289V55.493a.265.265,0,0,1-.3.3h-1.306a.246.246,0,0,1-.278-.279" transform="translate(-219.588 -25.638)" fill="#fff"/>
	<path id="Path_5" data-name="Path 5" d="M352.187,49.173V48.115c0-.179.076-.264.227-.257h1.469v-2.62q0-.234.248-.234h1.355c.172,0,.259.078.259.234v2.62h2.244q.237,0,.228.257v1.057c0,.192-.077.285-.228.278h-2.224v6.225a1.933,1.933,0,0,0,.4,1.418,1.978,1.978,0,0,0,1.375.382h.693c.186,0,.28.087.28.259v1.034c0,.2-.108.3-.321.3h-.889a3.962,3.962,0,0,1-2.56-.708,3.184,3.184,0,0,1-.863-2.571V49.451h-1.469q-.227.01-.227-.278" transform="translate(-226.264 -28.913)" fill="#fff"/>
	<path id="Path_6" data-name="Path 6" d="M376.623,42.214V40.229q0-.322.278-.321h1.285a.283.283,0,0,1,.319.321v1.985q0,.341-.319.341H376.9q-.278,0-.278-.341m0,13.3V44.552c0-.213.1-.32.3-.32h1.285a.259.259,0,0,1,.3.289V55.493a.264.264,0,0,1-.3.3H376.9a.246.246,0,0,1-.278-.279" transform="translate(-241.961 -25.637)" fill="#fff"/>
	<path id="Path_7" data-name="Path 7" d="M386.348,52.269a.33.33,0,0,1-.031-.124c0-.1.069-.144.2-.144h1.59a.247.247,0,0,1,.276.212l1.7,5.45q.528,1.694,1.116,4.286h.041q.57-2.585,1.107-4.292l1.676-5.45a.23.23,0,0,1,.248-.206h1.51q.175,0,.175.134a.336.336,0,0,1-.03.134L392.265,63.3a.32.32,0,0,1-.32.258h-1.572a.288.288,0,0,1-.31-.259Z" transform="translate(-248.19 -33.407)" fill="#fff"/>
	<path id="Path_8" data-name="Path 8" d="M416.445,58.907V55.836a4.3,4.3,0,0,1,1.251-3.242,4.494,4.494,0,0,1,3.254-1.2,4.539,4.539,0,0,1,3.351,1.19,4.791,4.791,0,0,1,1.194,3.537v1.457c0,.339-.177.507-.531.507h-6.636V58.9a3.084,3.084,0,0,0,.675,2.1,2.549,2.549,0,0,0,2.028.773,2.724,2.724,0,0,0,2.707-1.588.274.274,0,0,1,.433-.144l.931.445a.325.325,0,0,1,.171.487,4.258,4.258,0,0,1-4.242,2.393,4.585,4.585,0,0,1-3.4-1.194,4.437,4.437,0,0,1-1.188-3.273m1.883-2.244h5.283v-.828a3.071,3.071,0,0,0-.665-2.094,2.516,2.516,0,0,0-2-.76,2.471,2.471,0,0,0-1.915.771,2.962,2.962,0,0,0-.706,2.084Z" transform="translate(-267.543 -33.012)" fill="#fff"/>
	<path id="Path_9" data-name="Path 9" d="M460.362,56.284V41.268q0-.238.258-.228h1.458c.172,0,.255.076.248.228V56.284c0,.159-.083.237-.248.237H460.62c-.172,0-.258-.079-.258-.237" transform="translate(-295.761 -26.366)" fill="#fff"/>
	<path id="Path_10" data-name="Path 10" d="M475.083,62.937v-11.1q0-.238.257-.228h1.306q.277,0,.277.228v1.551a4.535,4.535,0,0,1,3.752-2,3.035,3.035,0,0,1,2.466,1,4,4,0,0,1,.835,2.653v7.89c0,.159-.093.237-.277.237h-1.327c-.185,0-.278-.079-.278-.237V55.615a3.565,3.565,0,0,0-.445-1.929,1.778,1.778,0,0,0-1.627-.7,2.887,2.887,0,0,0-1.793.626,4.277,4.277,0,0,0-1.264,1.536v7.787c0,.159-.085.237-.257.237H475.34c-.171,0-.257-.079-.257-.237" transform="translate(-305.219 -33.019)" fill="#fff"/>
	<path id="Path_11" data-name="Path 11" d="M507,51.6v-3.06a4.665,4.665,0,0,1,1.133-3.288,3.9,3.9,0,0,1,3.015-1.231,4,4,0,0,1,3.35,1.468V40.151q0-.238.228-.238h1.4q.258,0,.258.238V55.56c0,.159-.086.237-.258.237h-1.354a.2.2,0,0,1-.227-.24V54.329a3.891,3.891,0,0,1-1.334,1.181A4.092,4.092,0,0,1,511.15,56a4.039,4.039,0,0,1-3-1.153A4.426,4.426,0,0,1,507,51.6m1.883-.234a3.169,3.169,0,0,0,.738,2.283,2.756,2.756,0,0,0,2.074.764,2.627,2.627,0,0,0,2.037-.837,2.921,2.921,0,0,0,.765-2.045V48.4a2.63,2.63,0,0,0-.827-2.019,2.908,2.908,0,0,0-2.058-.77,2.564,2.564,0,0,0-2,.806,3.62,3.62,0,0,0-.729,2.489Z" transform="translate(-325.721 -25.642)" fill="#fff"/>
	<path id="Path_12" data-name="Path 12" d="M541.4,60.348V52.231c0-.159.086-.235.258-.227h1.375c.173,0,.256.068.248.206V60.02a2.347,2.347,0,0,0,.491,1.607,1.725,1.725,0,0,0,1.36.553,4.054,4.054,0,0,0,3.3-1.8V52.23c0-.158.086-.234.259-.226h1.375c.172,0,.255.068.249.206V63.328c0,.159-.077.237-.228.237h-1.355c-.172,0-.258-.079-.258-.24V62a5.226,5.226,0,0,1-3.826,1.768,3.148,3.148,0,0,1-2.4-.894,3.533,3.533,0,0,1-.848-2.529" transform="translate(-347.827 -33.41)" fill="#fff"/>
	<path id="Path_13" data-name="Path 13" d="M572.748,60.665a.479.479,0,0,1-.021-.136.283.283,0,0,1,.219-.287l1.026-.39a.247.247,0,0,1,.368.185,2.44,2.44,0,0,0,.837,1.262,2.593,2.593,0,0,0,1.65.482,2.392,2.392,0,0,0,1.531-.462,1.46,1.46,0,0,0,.584-1.2,1.477,1.477,0,0,0-.6-1.2,4.935,4.935,0,0,0-1.469-.785q-.868-.3-1.753-.661a3.848,3.848,0,0,1-1.5-1.082A2.665,2.665,0,0,1,573,54.6a2.888,2.888,0,0,1,1.066-2.317,4.182,4.182,0,0,1,2.787-.9,3.924,3.924,0,0,1,2.442.725,3.435,3.435,0,0,1,1.266,1.907q.088.3-.166.362l-1.193.3c-.162.042-.26-.023-.3-.195a2.045,2.045,0,0,0-2.156-1.508,2.25,2.25,0,0,0-1.428.41,1.37,1.37,0,0,0-.521,1.139,1.3,1.3,0,0,0,.6,1.082,5.523,5.523,0,0,0,1.47.728q.865.292,1.757.672a3.833,3.833,0,0,1,1.5,1.144,3.194,3.194,0,0,1-.468,4.277,4.157,4.157,0,0,1-2.834.942,4.761,4.761,0,0,1-2.674-.7,3.324,3.324,0,0,1-1.405-2.01" transform="translate(-367.95 -33.01)" fill="#fff"/>
	<path id="Path_14" data-name="Path 14" d="M597.718,49.173V48.115c0-.179.076-.264.227-.257h1.469v-2.62c0-.156.082-.234.248-.234h1.354c.172,0,.258.078.258.234v2.62h2.244q.238,0,.228.257v1.057c0,.192-.077.285-.228.278H601.3v6.225a1.933,1.933,0,0,0,.4,1.418,1.98,1.98,0,0,0,1.376.382h.693c.186,0,.28.087.28.259v1.034c0,.2-.108.3-.321.3h-.889a3.964,3.964,0,0,1-2.56-.708,3.186,3.186,0,0,1-.863-2.571V49.451h-1.469q-.228.01-.227-.278" transform="translate(-384.006 -28.913)" fill="#fff"/>
	<path id="Path_15" data-name="Path 15" d="M622.154,62.937v-11.1q0-.238.257-.228h1.306c.185,0,.278.074.278.224V53.89a4.694,4.694,0,0,1,1.478-1.779,3.506,3.506,0,0,1,2.121-.715q.341,0,.289.315L627.677,53q-.021.2-.28.254h-.527a2.932,2.932,0,0,0-1.8.815,3.5,3.5,0,0,0-1.035,1.6v7.261c0,.16-.085.239-.257.239h-1.388a.209.209,0,0,1-.237-.237" transform="translate(-399.703 -33.019)" fill="#fff"/>
	<path id="Path_16" data-name="Path 16" d="M642.516,42.215V40.23q0-.322.278-.321h1.286a.282.282,0,0,1,.319.321v1.985q0,.341-.319.341h-1.286c-.185,0-.277-.114-.278-.341m0,13.3V44.552q0-.32.3-.32H644.1a.26.26,0,0,1,.3.289V55.493a.264.264,0,0,1-.3.3h-1.306a.246.246,0,0,1-.278-.279" transform="translate(-412.785 -25.637)" fill="#fff"/>
	<path id="Path_17" data-name="Path 17" d="M655.15,58.907V55.836a4.292,4.292,0,0,1,1.25-3.242,5.153,5.153,0,0,1,6.605-.015,4.794,4.794,0,0,1,1.193,3.537v1.457c0,.339-.176.507-.529.507h-6.637V58.9a3.086,3.086,0,0,0,.676,2.1,2.547,2.547,0,0,0,2.028.773,2.727,2.727,0,0,0,2.708-1.588.275.275,0,0,1,.433-.144l.93.445a.325.325,0,0,1,.171.487,4.26,4.26,0,0,1-4.242,2.393,4.579,4.579,0,0,1-3.4-1.195,4.431,4.431,0,0,1-1.188-3.273m1.882-2.244h5.284v-.828a3.068,3.068,0,0,0-.666-2.094,2.513,2.513,0,0,0-2-.76,2.474,2.474,0,0,0-1.916.771,2.963,2.963,0,0,0-.706,2.084Z" transform="translate(-420.9 -33.012)" fill="#fff"/>
	<path id="Path_18" data-name="Path 18" d="M685.2,60.665a.511.511,0,0,1-.021-.136.284.284,0,0,1,.219-.287l1.027-.39a.248.248,0,0,1,.369.185,2.432,2.432,0,0,0,.837,1.262,2.593,2.593,0,0,0,1.65.482,2.4,2.4,0,0,0,1.532-.462,1.463,1.463,0,0,0,.584-1.2,1.478,1.478,0,0,0-.6-1.2,4.914,4.914,0,0,0-1.47-.785q-.865-.3-1.753-.661a3.85,3.85,0,0,1-1.5-1.082,2.665,2.665,0,0,1-.618-1.79,2.893,2.893,0,0,1,1.066-2.317,4.186,4.186,0,0,1,2.787-.9,3.925,3.925,0,0,1,2.442.725,3.431,3.431,0,0,1,1.265,1.907q.087.3-.167.362l-1.192.3q-.243.062-.3-.195a2.047,2.047,0,0,0-2.157-1.508,2.254,2.254,0,0,0-1.429.41,1.371,1.371,0,0,0-.52,1.139,1.293,1.293,0,0,0,.6,1.082,5.518,5.518,0,0,0,1.469.728q.868.292,1.757.671a3.824,3.824,0,0,1,1.5,1.144,3.194,3.194,0,0,1-.467,4.277,4.158,4.158,0,0,1-2.834.942,4.761,4.761,0,0,1-2.674-.7,3.326,3.326,0,0,1-1.406-2.01" transform="translate(-440.195 -33.011)" fill="#fff"/>
	<path id="Path_19" data-name="Path 19" d="M171.911,8.215,174.865,0H160.637a23.17,23.17,0,0,1,11.275,8.215" transform="translate(-103.201)" fill="rgba(255,255,255,0.75)"/>
	<path id="Path_20" data-name="Path 20" d="M24.219,32.168l7.263-20.2,7.12,19.8c9.511-1.135,13.91-3.7,13.911-3.7L42.421,0H20.542L9.588,30.47a120.892,120.892,0,0,0,14.63,1.7" transform="translate(-6.16 -0.001)" fill="rgba(255,255,255,0.5)"/>
	<path id="Path_21" data-name="Path 21" d="M3.428,85.217,0,94.752H15.241l2-5.552A62.491,62.491,0,0,1,3.428,85.217" transform="translate(0 -54.748)" fill="rgba(255,255,255,0.5)"/>
	<path id="Path_22" data-name="Path 22" d="M94.4,96.809l1.649,4.585h6.638l.578-5.839A59.693,59.693,0,0,1,94.4,96.809" transform="translate(-60.65 -61.39)" fill="rgba(255,255,255,0.5)"/>
	<path id="Path_23" data-name="Path 23" d="M61.3,10.526,57.912,19.9c-2.252,5.93-12.18,21.457-48.324,17.336,0,0,25.907,6,42.925-2.4L48.2,46.767H63.441l9.9-27.337a23.17,23.17,0,0,0-12.04-8.9" transform="translate(-6.16 -6.763)" fill="rgba(255,255,255,0.75)"/>
</svg>
