<svg xmlns="http://www.w3.org/2000/svg" id="logo-color" width="253" height="40" data-name="Logo color" viewBox="0 0 253 40"><path id="Path_3" fill="#151539" d="M72.871-.183a7.81,7.81,0,0,0,.558,1.691q3.759,10.478,7.527,20.948c.086.275-.137.386-.292.506a30.5,30.5,0,0,1-4.454,2.866,39.166,39.166,0,0,1-7.536,3,.986.986,0,0,1-.627.077c-.223-.077-.18-.249-.24-.395-1.167-3.192-2.309-6.393-3.459-9.594q-1.184-3.282-2.369-6.574a.154.154,0,0,0-.077-.112c-.146.06-.146.223-.189.343Q58.607,21.245,55.466,29.9c-.129.36-.12.815-.541,1.021-.627.034-1.244.12-1.88.129-1.94.026-3.879,0-5.819-.094-1.751-.094-3.5-.189-5.235-.412-.326-.043-.652-.034-.978-.1a3.451,3.451,0,0,1-.524-.034,2.447,2.447,0,0,1-.343-.112A.283.283,0,0,1,40,30.067a12.131,12.131,0,0,1,.687-2.111q1.923-5.364,3.862-10.727c1.356-3.75,2.695-7.5,4.06-11.25.7-1.905,1.365-3.819,2.06-5.724A1.146,1.146,0,0,1,50.9-.2Z" data-name="Path 3" transform="translate(-36.568 0.169)"/><path id="Path_4" fill="#5d74b7" d="M50.858,71.966c1.45.12,2.9.249,4.351.352,1.021.069,2.051.1,3.081.163,1.674.094,3.339.069,5.012.051.558-.009,1.116-.043,1.665-.069a3.888,3.888,0,0,1,1.468-.189,63.734,63.734,0,0,0,6.961-.832c1.347-.232,2.686-.532,4.008-.867A1.258,1.258,0,0,1,78,70.5a35.517,35.517,0,0,0,12.582-6.041c.129-.1.3-.18.309-.386.172.146.309.009.412-.077a32.845,32.845,0,0,0,3.562-3.6A22.3,22.3,0,0,0,97.814,55.7c.644-1.373,1.081-2.823,1.6-4.248q1.081-2.952,2.137-5.9c.069-.206.129-.266.36-.189a23.517,23.517,0,0,1,6.008,3.038,22.717,22.717,0,0,1,3.141,2.652,21.23,21.23,0,0,1,2.429,2.9.352.352,0,0,1,.034.378q-.97,2.652-1.931,5.3-2.18,6.024-4.369,12.057-1.717,4.737-3.459,9.483a1.2,1.2,0,0,0-.034.206H88.545a.644.644,0,0,1,0-.772c.043-.112.12.215.206-.034.79-2.351,1.682-4.677,2.515-7.011.446-1.253.884-2.506,1.373-3.733.017-.051.077-.12.034-.137s-.12.051-.18.077a36.528,36.528,0,0,1-5.373,2.025,52.141,52.141,0,0,1-9.93,1.888c-1.545.154-3.1.24-4.66.3-1.159.043-2.317.069-3.467.06-2.257-.026-4.506-.137-6.755-.318q-4.875-.386-9.69-1.236a6.18,6.18,0,0,1-1.708-.395.129.129,0,0,1-.051-.137" data-name="Path 4" transform="translate(-46.491 -41.447)"/><path id="Path_5" fill="#151539" d="M4.023,353.112a61.639,61.639,0,0,0,8.608,2.755c1.511.378,3.03.687,4.583.97q-.785,2.188-1.571,4.368a6.2,6.2,0,0,0-.386,1.167H.324c-.112,0-.369.172-.343-.163a10,10,0,0,0,.7-1.759q1.39-3.823,2.764-7.646a.567.567,0,0,1,.069-.1.172.172,0,0,0,.077.163,1,1,0,0,0,.275.129.232.232,0,0,1,.163.12" data-name="Path 5" transform="translate(0.018 -322.447)"/><path id="Path_6" fill="#5d74b7" d="M686.818,0,685.41,3.948l-1.468,4.119c-.455-.558-.9-1.1-1.356-1.631A19.846,19.846,0,0,0,680.3,4.2a22.375,22.375,0,0,0-5.132-3.27C674.45.609,673.721.309,673,0Z" data-name="Path 6" transform="translate(-615.24 -0.014)"/><path id="Path_7" fill="#151539" d="M395.623,403.61c-.24-.978-.661-1.9-.978-2.849-.154-.472-.318-.944-.506-1.4-.112-.266-.051-.343.232-.36a53.88,53.88,0,0,0,5.853-.7c.867-.154,1.734-.326,2.652-.5l-.489,5.046c-.146.24-.034.506-.069.764Z" data-name="Path 7" transform="translate(-360.264 -363.676)"/><path id="Path_8" fill="#46415c" d="M2945.137,306.6h.086v1.373h-.086a1.589,1.589,0,0,1,0-1.373" data-name="Path 8" transform="translate(-2692.226 -280.303)"/><path id="Path_9" fill="#151539" d="M1981.088,215.942c.309-.318.523-.541.747-.755a4.283,4.283,0,0,1,3.948-1.124,2.942,2.942,0,0,1,2.3,2.617,7.553,7.553,0,0,1,.086,1.107q-.013,3.707.009,7.415c0,.4-.129.541-.515.506a6.586,6.586,0,0,0-.944,0c-.318.017-.429-.12-.429-.429.009-.944,0-1.888,0-2.832v-4.454a3.72,3.72,0,0,0-.026-.558c-.3-1.939-2.231-2.566-3.879-1.261a5.3,5.3,0,0,0-.481.429,2.514,2.514,0,0,0-.789,1.939c.052,2.231.009,4.454.026,6.685,0,.386-.129.506-.489.481a5.244,5.244,0,0,0-.9,0c-.36.034-.455-.112-.455-.463.017-2.626.009-5.261.009-7.887,0-.9.017-1.8-.009-2.7-.009-.343.068-.506.446-.463a4.814,4.814,0,0,0,.9,0c.335-.026.472.069.446.429s-.009.79-.009,1.33" data-name="Path 9" transform="translate(-1809.42 -195.617)"/><path id="Path_10" fill="#151539" d="M2262.763,226.177a5.511,5.511,0,0,1-2.892,1.665,3.435,3.435,0,0,1-3.4-.867,3.075,3.075,0,0,1-.764-2.12c-.017-2.755,0-5.509-.009-8.273,0-.3.112-.36.378-.352a6.88,6.88,0,0,0,.987,0c.369-.034.5.086.489.472-.026,1.6-.008,3.2-.008,4.8v2.746a1.918,1.918,0,0,0,2.532,2.094,4.3,4.3,0,0,0,2.549-1.613.723.723,0,0,0,.12-.523c0-2.5.009-4.994-.009-7.5,0-.386.1-.506.481-.463s1-.18,1.279.1.069.815.069,1.244c.009,3.227,0,6.453.009,9.68,0,.369-.086.523-.472.489a8.758,8.758,0,0,0-.987,0c-.249.009-.36-.094-.352-.352s0-.738,0-1.21" data-name="Path 10" transform="translate(-2062.103 -197.657)"/><path id="Path_11" fill="#151539" d="M2862.668,221.709v1.373a3.173,3.173,0,0,1-2.609,2.463,5,5,0,0,1-4.051-.669,3.24,3.24,0,0,1-1.2-1.768c-.086-.266-.035-.481.283-.549l.077-.034c.326-.094.644-.369.97-.3s.318.523.472.8a2.779,2.779,0,0,0,3.862.6,1.53,1.53,0,0,0,.094-2.18,4.271,4.271,0,0,0-1.6-.944,14.132,14.132,0,0,1-2.335-.944,2.848,2.848,0,0,1-1.571-2.935,2.81,2.81,0,0,1,2.026-2.523,4.273,4.273,0,0,1,4.437.584,3.273,3.273,0,0,1,1.03,1.639c.069.24.026.395-.24.429-.094.017-.2.051-.292.069a2.7,2.7,0,0,1-.875.18c-.283-.034-.283-.472-.438-.712a2.49,2.49,0,0,0-3.416-.515,1.4,1.4,0,0,0,.164,2.24,7.9,7.9,0,0,0,2.222.978,5.03,5.03,0,0,1,2.438,1.5,2.757,2.757,0,0,1,.566,1.227" data-name="Path 11" transform="translate(-2609.757 -195.412)"/><path id="Path_12" fill="#151539" d="M2390.477,225.826a4.353,4.353,0,0,1-3.493-1.279,3.536,3.536,0,0,1-.721-1.39.311.311,0,0,1,.223-.429l.918-.352c.232-.086.352-.009.446.232a2.617,2.617,0,0,0,3.544,1.485,1.541,1.541,0,0,0,.421-2.712,7.112,7.112,0,0,0-2.1-1.013,7.505,7.505,0,0,1-1.965-.91,2.943,2.943,0,0,1,.334-5.02,4.473,4.473,0,0,1,5.133.575,3.532,3.532,0,0,1,.8,1.4c.086.266.026.446-.283.489a1.7,1.7,0,0,0-.163.051,2.981,2.981,0,0,1-.952.189c-.3-.043-.309-.5-.464-.755-.686-1.184-2.738-1.1-3.433-.429a1.369,1.369,0,0,0,.189,2.18,10.652,10.652,0,0,0,2.541,1.107,4.428,4.428,0,0,1,2.283,1.579,3.16,3.16,0,0,1-1.605,4.711,4.2,4.2,0,0,1-1.639.309" data-name="Path 12" transform="translate(-2181.44 -195.547)"/><path id="Path_13" fill="#151539" d="M1614.827,226.464l.36-1.5c.669-2.772,1.614-5.458,2.42-8.2a.341.341,0,0,1,.4-.275,11.023,11.023,0,0,0,1.159,0c.352-.026.412.077.3.4q-1.27,3.759-2.515,7.526c-.352,1.056-.712,2.111-1.047,3.167a.507.507,0,0,1-.592.412c-.5-.034-1.073.172-1.476-.077s-.395-.875-.558-1.347c-1.1-3.218-2.171-6.445-3.261-9.663-.1-.318-.086-.446.283-.429s.833.017,1.245,0a.411.411,0,0,1,.472.36c.918,3.064,2,6.084,2.678,9.225.017.094.06.18.12.395" data-name="Path 13" transform="translate(-1471.79 -197.919)"/><path id="Path_14" fill="#151539" d="M2491.444,195.313c0-1.279-.009-2.334.008-3.39.008-.309-.094-.395-.386-.369s-.626-.009-.944.009-.369-.112-.386-.378c-.069-1.184-.077-1.184,1.116-1.184.583,0,.583,0,.583-.592s.009-1.227,0-1.845c-.009-.309.111-.42.429-.429,1.407-.026,1.407-.034,1.407,1.356v.944c.008.644-.06.549.541.558s1.056.009,1.588,0c.258-.009.343.069.352.335.026,1.219.034,1.219-1.193,1.219-.395,0-.927-.137-1.158.069s-.078.772-.078,1.184c-.008,1.639,0,3.287,0,4.926v.3c.035,1.081.506,1.545,1.6,1.57h.687c.086,0,.2-.026.249.017.446.318.12.781.206,1.167a.272.272,0,0,1-.292.369,7.962,7.962,0,0,1-2.549-.215,2.329,2.329,0,0,1-1.691-2.094,33.711,33.711,0,0,1-.085-3.536" data-name="Path 14" transform="translate(-2276.029 -171.084)"/><path id="Path_15" fill="#151539" d="M1468.977,195.548c0-1.3-.009-2.36.009-3.415,0-.257-.051-.352-.326-.335s-.712,0-1.073.009c-.206.009-.292-.077-.283-.275a.419.419,0,0,0,0-.043c-.077-1.236-.077-1.262,1.159-1.227.446.017.549-.112.524-.541-.034-.652,0-1.313-.017-1.965-.009-.266.1-.36.352-.36s.747.009,1.116,0,.369.12.36.386c-.017.7.009,1.4-.009,2.094-.009.309.095.386.386.378.583-.026,1.176,0,1.759-.009.266-.009.343.094.352.343.051,1.21.06,1.2-1.159,1.219-.421,0-.987-.189-1.228.086s-.06.79-.06,1.2c0,1.742-.009,3.484.017,5.226.017,1.081.489,1.51,1.571,1.536.275.009.541.009.815,0s.36.112.36.36c-.017,1.407.163,1.184-1.116,1.2a5.771,5.771,0,0,1-1.614-.189,2.327,2.327,0,0,1-1.819-2.12c-.172-1.261-.026-2.54-.077-3.553" data-name="Path 15" transform="translate(-1341.347 -171.328)"/><path id="Path_16" fill="#151539" d="M1917.809,178.456V171.35c0-.558,0-.558.575-.566.318,0,.627.017.944,0s.446.112.446.446c-.017,1.442-.009,2.883-.009,4.325v10.109c0,.558,0,.558-.575.558-.3,0-.6-.017-.9.009s-.489-.12-.489-.489c.017-2.283.009-4.565.009-6.848Z" data-name="Path 16" transform="translate(-1753.204 -156.141)"/><path id="Path_17" fill="#151539" d="M2593.8,216.131c.146-.215.283-.438.447-.644a4.057,4.057,0,0,1,2.781-1.665c.523-.06.609.026.532.532l-.026.172c-.137,1.013-.137,1.03-1.159,1.141a3.415,3.415,0,0,0-2.652,2.978c.112,2.137.026,4.282.043,6.428,0,.386-.12.506-.489.481a7.808,7.808,0,0,0-.987,0c-.292.017-.4-.094-.4-.395.017-.987.009-1.974.009-2.952,0-2.574.009-5.14-.009-7.715,0-.335.086-.472.429-.446a7.128,7.128,0,0,0,.987,0c.292-.017.4.077.4.386-.026.558-.009,1.124-.009,1.682l.1.026" data-name="Path 17" transform="translate(-2369.443 -195.472)"/><path id="Path_18" fill="#151539" d="M1424.008,222.4c0-1.751.009-3.51-.009-5.261,0-.369.1-.523.489-.489a4.979,4.979,0,0,0,.9,0c.386-.034.489.12.489.489-.017,2.266-.009,4.54-.009,6.805,0,1.253-.009,2.514.009,3.767.009.343-.12.463-.446.446a9.006,9.006,0,0,0-.987,0c-.343.026-.438-.12-.438-.446q.013-2.652.009-5.3" data-name="Path 18" transform="translate(-1301.785 -198.068)"/><path id="Path_19" fill="#151539" d="M1569,222.232c0-1.725.009-3.458-.008-5.183-.009-.42.129-.575.541-.532a3.77,3.77,0,0,0,.815,0c.438-.051.532.154.532.541q-.013,5.2-.009,10.41c0,.523-.026.549-.558.549-.257,0-.515-.017-.772.009-.4.034-.549-.1-.549-.532.026-1.759.008-3.51.008-5.269" data-name="Path 19" transform="translate(-1434.336 -197.943)"/><path id="Path_20" fill="#151539" d="M2676.709,222.445v-5.183c0-.558.009-.566.583-.566.318,0,.627.009.944,0s.343.112.343.335v10.538c0,.635,0,.635-.652.635-.257,0-.515-.017-.772,0a.394.394,0,0,1-.455-.446c.017-1.03.009-2.06.009-3.081Z" data-name="Path 20" transform="translate(-2446.97 -198.113)"/><path id="Path_21" fill="#151539" d="M2676.793,167.43c0-.309.009-.626,0-.935s.129-.395.386-.395h1.064a.367.367,0,0,1,.42.412v1.794c0,.3-.146.438-.446.438s-.687-.009-1.022,0-.412-.12-.4-.412,0-.6,0-.892" data-name="Path 21" transform="translate(-2447.055 -151.86)"/><path id="Path_22" fill="#16163a" d="M1425.954,167.322c0,.3-.009.6,0,.892s-.1.429-.395.429h-1.107c-.249,0-.352-.12-.352-.369q.013-.94,0-1.879a.348.348,0,0,1,.386-.395h1.064c.266.009.42.12.4.421s0,.6,0,.892" data-name="Path 22" transform="translate(-1301.876 -151.769)"/><path id="Path_23" fill="#161639" d="M1569.1,167.3c0-.266.009-.541,0-.807a.428.428,0,0,1,.472-.5c.36.009.627.009.935,0s.481.12.472.455q-.013.875,0,1.751c0,.292-.111.455-.429.446s-.687-.009-1.021,0-.429-.154-.421-.446,0-.6,0-.892" data-name="Path 23" transform="translate(-1434.427 -151.764)"/><path id="Path_24" fill="#151539" d="M1147.6,166.379c0-.309-.12-.4-.4-.395s-.661.017-.987,0-.446.112-.438.446c.017,1.553.009,3.115,0,4.668,0,.12.06.249-.094.386a4.162,4.162,0,0,0-2.755-1.356,3.936,3.936,0,0,0-4.5,3.1,16.672,16.672,0,0,0-.052,5.578,3.7,3.7,0,0,0,3.9,3.235,4.22,4.22,0,0,0,3.527-1.665c0,.463.009.8,0,1.133s.086.335.326.335c.369-.009.747-.009,1.116,0s.36-.112.36-.386q-.009-7.535,0-15.069m-1.88,11.482a2.677,2.677,0,0,1-3.03,2.6,2.578,2.578,0,0,1-2.558-2.789c-.017-.515,0-1.03,0-1.648a13.408,13.408,0,0,1,.077-2.077,2.51,2.51,0,0,1,2.738-2.266,2.682,2.682,0,0,1,2.781,2.42,22.353,22.353,0,0,1,.008,3.759" data-name="Path 24" transform="translate(-1040.479 -151.753)"/><path id="Path_25" fill="#151539" d="M1288.605,172.354c0-2-.009-4,.009-6,0-.36-.12-.489-.472-.472a9.462,9.462,0,0,1-.987,0c-.326-.017-.4.112-.395.412.017.6.009,1.2.009,1.8v3.347l-.283-.24a4.247,4.247,0,0,0-4.686-.9,3.711,3.711,0,0,0-2.489,3.613,34.088,34.088,0,0,0,0,4.2,4.081,4.081,0,0,0,6.48,3.141,6.55,6.55,0,0,0,1-.918c0,.412.009.738,0,1.064s.094.369.352.36a7.145,7.145,0,0,1,.944,0c.412.043.541-.112.532-.523-.017-2.952-.009-5.913-.009-8.865m-1.871,5.432a2.678,2.678,0,0,1-2.721,2.583,2.48,2.48,0,0,1-2.841-2.514,14.169,14.169,0,0,1,.112-4.3,2.4,2.4,0,0,1,2.755-1.965,2.665,2.665,0,0,1,2.661,2.223,17.737,17.737,0,0,1,.043,2.137,12.973,12.973,0,0,1-.009,1.836" data-name="Path 25" transform="translate(-1169.454 -151.661)"/><path id="Path_26" fill="#151539" d="M2121.806,179.219c0-4.256-.009-8.5.008-12.761,0-.421-.137-.575-.541-.532a6.891,6.891,0,0,1-.729,0c-.575,0-.575,0-.575.558v4.9c-.086-.017-.12-.009-.137-.026l-.155-.146a4.248,4.248,0,0,0-4.652-.884,3.743,3.743,0,0,0-2.506,3.639c-.069,1.339-.043,2.686-.026,4.025a4.24,4.24,0,0,0,.575,2.12,4.186,4.186,0,0,0,4.884,1.665,4.029,4.029,0,0,0,2.051-1.459c0,.429.008.755,0,1.073s.1.386.378.369.712-.009,1.073,0,.377-.094.377-.378c-.017-.729-.009-1.459-.009-2.18m-1.922-1.081a2.706,2.706,0,0,1-2.9,2.283,2.39,2.39,0,0,1-2.6-2.343,15.719,15.719,0,0,1,.06-4.308c.292-1.57,1.4-2.283,3.081-2.1a2.7,2.7,0,0,1,2.412,2.712c.009.541,0,1.081,0,1.751a11.465,11.465,0,0,1-.06,2.017" data-name="Path 26" transform="translate(-1931.171 -151.695)"/><path id="Path_27" fill="#151539" d="M998.662,184.917c-.566-1.733-1.1-3.476-1.639-5.209-.97-3.107-1.948-6.213-2.909-9.328-.112-.378-.292-.558-.7-.523a8.821,8.821,0,0,1-.944.009c-.678,0-.7.017-.9.644L988.157,181.2c-.395,1.244-.79,2.5-1.193,3.742-.1.3-.069.463.3.438a4.983,4.983,0,0,1,.858,0,.557.557,0,0,0,.669-.481c.361-1.244.764-2.472,1.133-3.716.077-.249.172-.36.463-.36q2.274.026,4.549,0a.4.4,0,0,1,.472.343c.3,1.081.627,2.163.953,3.235s.086.953,1.313.97c.215,0,.429-.017.644,0,.36.026.481-.06.352-.455m-4.206-5.655c-1.184-.017-2.377-.009-3.562,0-.215,0-.369.009-.275-.292q1.038-3.313,2.06-6.634h.1c.258.867.506,1.734.764,2.6.386,1.322.773,2.643,1.185,3.965.094.292.026.36-.275.36" data-name="Path 27" transform="translate(-902.212 -155.29)"/><path id="Path_28" fill="#151539" d="M1736.559,220.358c1.047.017,2.086.009,3.133.009h3.133c.378,0,.549-.154.541-.541-.017-.669.009-1.339-.009-2.017a3.921,3.921,0,0,0-2.643-3.819,5.485,5.485,0,0,0-3.124-.137,3.77,3.77,0,0,0-3.09,3.158,16.6,16.6,0,0,0,.026,5.492,3.6,3.6,0,0,0,2.772,2.935,6.449,6.449,0,0,0,2.592.137,3.961,3.961,0,0,0,3.15-2.085c.249-.455.214-.575-.249-.789l-.7-.326a.314.314,0,0,0-.481.18,2.949,2.949,0,0,1-3.459,1.45,2.193,2.193,0,0,1-1.759-1.562,5.631,5.631,0,0,1-.189-1.733c-.009-.283.069-.36.352-.352m-.163-3.364a2.515,2.515,0,0,1,2.961-1.673,2.336,2.336,0,0,1,2.111,2.171c.043.395.034.8.069,1.193.017.257-.086.309-.326.309-.79-.009-1.571-.009-2.36-.009s-1.545-.009-2.317.009c-.232,0-.326-.06-.318-.309a5.619,5.619,0,0,1,.18-1.691" data-name="Path 28" transform="translate(-1585.438 -195.365)"/><path id="Path_29" fill="#151539" d="M2731.763,220.583c1.047.017,2.086.009,3.133.009h3.176c.369,0,.558-.172.549-.549-.017-.815.026-1.622-.06-2.437a3.869,3.869,0,0,0-3.107-3.527,6.5,6.5,0,0,0-2.214-.086,4.1,4.1,0,0,0-3.622,3.965q-.034,1.931,0,3.853a3.887,3.887,0,0,0,3.047,3.887,6.377,6.377,0,0,0,3.175-.051,3.811,3.811,0,0,0,2.438-1.931c.266-.489.24-.549-.274-.8-.181-.086-.361-.163-.532-.266-.309-.18-.49-.129-.669.215a3.119,3.119,0,0,1-4.326.978,2.248,2.248,0,0,1-.369-.352,3.734,3.734,0,0,1-.678-2.583c0-.266.068-.335.335-.335m-.052-3.57a2.569,2.569,0,0,1,3-1.459,2.4,2.4,0,0,1,2.025,2.394c.026.326,0,.652.017.978s-.069.292-.292.283c-.781-.009-1.571-.009-2.351-.009h-2.352c-.163,0-.318.017-.318-.223a4.978,4.978,0,0,1,.266-1.974" data-name="Path 29" transform="translate(-2495.33 -195.59)"/></svg>